<?xml version="1.0" encoding="UTF-8" standalone="no"?>
<svg
   xmlns:dc="http://purl.org/dc/elements/1.1/"
   xmlns:cc="http://creativecommons.org/ns#"
   xmlns:rdf="http://www.w3.org/1999/02/22-rdf-syntax-ns#"
   xmlns:svg="http://www.w3.org/2000/svg"
   xmlns="http://www.w3.org/2000/svg"
   xmlns:sodipodi="http://sodipodi.sourceforge.net/DTD/sodipodi-0.dtd"
   xmlns:inkscape="http://www.inkscape.org/namespaces/inkscape"
   inkscape:export-ydpi="30.719999"
   inkscape:export-xdpi="30.719999"
   inkscape:export-filename="C:\Users\Marco\Dev\gigantic_emu\GiganticEmu.Launcher\icon.png"
   inkscape:version="1.0 (4035a4fb49, 2020-05-01)"
   sodipodi:docname="icon.svg"
   id="svg11"
   version="1.1"
   viewBox="0 0 600 600"
   height="600pt"
   width="600pt">
  <metadata
     id="metadata17">
    <rdf:RDF>
      <cc:Work
         rdf:about="">
        <dc:format>image/svg+xml</dc:format>
        <dc:type
           rdf:resource="http://purl.org/dc/dcmitype/StillImage" />
        <dc:title></dc:title>
      </cc:Work>
    </rdf:RDF>
  </metadata>
  <defs
     id="defs15" />
  <sodipodi:namedview
     inkscape:current-layer="svg11"
     inkscape:window-maximized="1"
     inkscape:window-y="32"
     inkscape:window-x="2552"
     inkscape:cy="356"
     inkscape:cx="374.66667"
     inkscape:zoom="1.3545374"
     fit-margin-bottom="0"
     fit-margin-right="0"
     fit-margin-left="0"
     fit-margin-top="0"
     showgrid="false"
     id="namedview13"
     inkscape:window-height="1377"
     inkscape:window-width="2560"
     inkscape:pageshadow="2"
     inkscape:pageopacity="0"
     guidetolerance="10"
     gridtolerance="10"
     objecttolerance="10"
     borderopacity="1"
     bordercolor="#666666"
     pagecolor="#ffffff" />
  <g
     transform="translate(19.303518,33.332345)"
     id="g848">
    <g
       id="#5fc1a0ff">
      <path
         fill="#5fc1a0"
         opacity="1"
         d="m 254.56,0 h 15.9 c 6.53,0.92 13.17,1.21 19.55,3.07 16.34,4.49 32.57,11.2 45.53,22.37 17.78,16.12 31.19,37.73 35.56,61.5 3.23,18.29 -1.86,36.95 -9.83,53.36 -6.78,14.04 -18.16,26.01 -32.41,32.53 -10.22,4.68 -21.78,5.43 -32.81,3.94 -11.5,-1.72 -22.43,-8.12 -28.79,-17.98 -8.1,-12.44 -10.17,-27.82 -9.85,-42.39 0.25,-0.01 0.76,-0.03 1.01,-0.04 0.98,8.51 5.57,16.73 13,21.21 10.46,6.39 24.75,4.59 34.07,-3.09 12.54,-10.85 16.2,-30.6 8.37,-45.23 C 308.54,78.83 298.02,71.77 286.81,69.08 274.9,65.91 262,68.46 251.33,74.34 c -10.8,6.11 -20.14,15.13 -25.57,26.38 -9.69,20.04 -12.7,43.4 -7.67,65.14 5.33,25.39 21.71,47.5 42.59,62.46 19.72,14.52 43.33,25.76 68.32,25.11 13.03,0.18 25.87,-3.64 37.11,-10.12 -8.82,14.48 -22.43,25.85 -37.66,33.13 -19.51,9.35 -42.08,10.43 -63.05,6.1 -26.88,-5.69 -52.43,-18.56 -72.32,-37.62 -21.77,-20.48 -36.67,-47.5 -45,-76.04 -4.74,-15.48 -6.77,-31.81 -5.84,-47.98 1.45,-27.77 12.13,-55.14 30.59,-76.04 C 188.19,27.48 207.72,13.49 229.64,5.69 237.67,2.71 246.18,1.57 254.56,0 Z"
         id="path2" />
    </g>
    <g
       id="#e27846ff">
      <path
         fill="#e27846"
         opacity="1"
         d="m 356.46,293.41 c 21.58,-17.41 48.67,-28.31 76.49,-29.29 19.25,-0.72 38.63,3.07 56.35,10.61 15.85,6.56 30.7,15.94 42.53,28.45 10.68,11.22 18.63,24.95 23.4,39.67 4.11,11.94 5.59,24.59 6.11,37.14 0.66,16.58 -4.93,32.63 -12.21,47.28 -7.13,13.69 -16.84,26.35 -29.58,35.25 -8.9,6.26 -19.39,9.77 -29.94,12.06 -15.88,3.47 -33.14,3.72 -48.26,-2.91 -14.64,-5.51 -25.94,-17.97 -31.6,-32.38 -4.87,-11.89 -4.15,-26 2.48,-37.08 6.94,-11.45 17.62,-20.51 29.64,-26.24 -4.85,5.12 -9.52,10.92 -10.59,18.13 -2.88,16.42 11.45,32.68 27.76,33.54 12.2,0.63 24.95,-4.34 32.57,-14.09 6.07,-7.35 8.77,-17.18 8.07,-26.63 -0.84,-14.86 -9.61,-28.64 -22,-36.65 -11.36,-7.41 -25.18,-11.47 -38.77,-10.2 -24.34,2.09 -47.76,13.55 -64.36,31.47 -14.5,15.38 -23.15,35.61 -26.34,56.36 -3.31,24.41 -2.36,50.45 8.97,72.82 5.46,10.92 13.38,20.72 23.36,27.81 2.16,1.59 4.75,2.63 6.57,4.66 -5.24,0.56 -10.46,-0.6 -15.54,-1.75 -17.64,-3.99 -34.12,-13.28 -46.37,-26.64 -11.13,-11.98 -18.79,-26.86 -23.52,-42.44 -5.11,-17.2 -7.62,-35.31 -6.31,-53.25 1.16,-25.4 9.88,-50.11 23.14,-71.68 10.31,-16.48 23.04,-31.52 37.95,-44.02 z"
         id="path5" />
    </g>
    <g
       id="#0394e5ff">
      <path
         fill="#0394e5"
         opacity="1"
         d="m 184.83,267.98 c 21.45,2.28 41.87,12.91 56.34,28.9 14.84,16.13 22.79,37.48 26.03,58.9 3.68,24.53 1.61,50.06 -6.97,73.39 -7.25,20.26 -19.04,38.73 -33.42,54.67 -11.65,12.49 -24.42,24.24 -39.46,32.55 -15.37,8.54 -32.39,14.35 -49.93,16.14 C 112.38,535.5 86.73,530 64.38,518.58 41.22,507.07 20.81,488.72 10.12,464.85 4.19,452.5 1.8,438.91 0,425.45 v -15.91 c 0.81,-6 0.94,-12.13 2.71,-17.96 4.38,-15.53 12.11,-30.1 22.3,-42.59 10.63,-12.98 24.83,-23.72 41.42,-27.48 19.94,-4.89 42.25,-5.58 60.82,4.36 14.13,6.81 24.42,20.27 28.68,35.22 3.44,11.19 2.21,23.85 -4.06,33.84 -7.59,12.05 -19.71,20.84 -32.82,26.06 4.66,-4.48 9.55,-9.16 11.39,-15.58 5.66,-16.72 -8.42,-35.75 -25.59,-37.17 -14.35,-1.97 -29.68,4.91 -37.16,17.42 -7.26,11.94 -7.05,27.45 -1.25,39.92 5.8,12.61 17.2,21.98 29.97,26.99 12.51,5.34 26.68,5.41 39.85,2.79 25.06,-4.73 48.28,-19.21 62.91,-40.17 11.69,-16.43 17.78,-36.25 20.04,-56.13 1.4,-13.52 1.62,-27.38 -1.62,-40.67 -3.55,-16.99 -12.23,-33.15 -25.51,-44.49 -2.42,-1.98 -5.11,-3.63 -7.25,-5.92 z"
         id="path8" />
    </g>
  </g>
</svg>
